<svg xmlns="http://www.w3.org/2000/svg" width="35.094" height="34.812"><defs><style>.cls-1{fill:#fff;fill-rule:evenodd}</style></defs><path id="p-p-3" class="cls-1" d="M455.325 509.25h-12.409a2.168 2.168 0 0 0-2.166 2.166v8.907a2.168 2.168 0 0 0 2.166 2.166h5.319v1.454h-1.612a.885.885 0 0 0 0 1.77h5a.885.885 0 0 0 0-1.77h-1.612v-1.454h5.319a2.168 2.168 0 0 0 2.166-2.166v-8.9a2.174 2.174 0 0 0-2.171-2.173zm.4 11.081a.4.4 0 0 1-.4.4h-12.409a.4.4 0 0 1-.4-.4v-8.908a.4.4 0 0 1 .4-.4h12.409a.4.4 0 0 1 .4.4v8.908zm17.936 7.253h-12.406a2.168 2.168 0 0 0-2.166 2.166v8.915a2.169 2.169 0 0 0 2.166 2.166h5.319v1.453h-1.612a.885.885 0 0 0 0 1.77h5a.885.885 0 1 0 0-1.77h-1.612v-1.453h5.319a2.168 2.168 0 0 0 2.166-2.166v-8.915a2.168 2.168 0 0 0-2.171-2.166zm.4 11.081a.4.4 0 0 1-.4.4h-12.406a.4.4 0 0 1-.4-.4v-8.915a.4.4 0 0 1 .4-.4h12.409a.4.4 0 0 1 .4.4v8.915zm-6.607-23.673h-6.795a.885.885 0 1 0 0 1.77h5.909v6.094l-.726-.734a.881.881 0 0 0-1.246 1.245l2.232 2.231a.886.886 0 0 0 1.252 0l2.231-2.231a.88.88 0 0 0-1.245-1.245l-.727.727v-6.972a.889.889 0 0 0-.879-.885zm-16.727 16.556a.882.882 0 0 0 1.252-1.244l-2.231-2.231a.878.878 0 0 0-1.245 0l-2.231 2.231a.88.88 0 0 0 1.245 1.244l.727-.726v6.972a.885.885 0 0 0 .885.885h6.78a.885.885 0 1 0 0-1.77H450v-6.1z" transform="translate(-440.75 -509.25)"/></svg>