<svg xmlns="http://www.w3.org/2000/svg" width="29.843" height="25.5"><defs><style>.cls-1{fill:#fff;fill-rule:evenodd}</style></defs><path id="g-6" class="cls-1" d="M468.456 907.466a.608.608 0 0 1-.391-.143l-6.049-5.125h-13.4a4.164 4.164 0 0 1-4.149-4.169v-11.9a4.164 4.164 0 0 1 4.149-4.17h21.549a4.164 4.164 0 0 1 4.149 4.17v11.9a4.164 4.164 0 0 1-4.149 4.169h-1.1v4.66a.607.607 0 0 1-.609.608zm-19.843-24.289a2.947 2.947 0 0 0-2.937 2.952v11.9a2.947 2.947 0 0 0 2.937 2.951h13.624a.6.6 0 0 1 .391.144l5.222 4.424v-3.959a.608.608 0 0 1 .606-.609h1.706a2.948 2.948 0 0 0 2.938-2.951v-11.9a2.948 2.948 0 0 0-2.938-2.952h-21.549zm20.531 5.6h-19.513a.609.609 0 0 1 0-1.217h19.513a.609.609 0 0 1 0 1.216zm0 3.9h-19.513a.609.609 0 0 1 0-1.218h19.513a.609.609 0 0 1 0 1.215zm0 3.9h-19.513a.609.609 0 0 1 0-1.218h19.513a.609.609 0 0 1 0 1.213z" transform="translate(-444.469 -881.969)"/></svg>