<svg xmlns="http://www.w3.org/2000/svg" width="37" height="33.656"><defs><style>.cls-1{fill:#fff;fill-rule:evenodd}</style></defs><path id="p-p-1" class="cls-1" d="M467.305 234.937a3.066 3.066 0 0 1-1.412 2.3 2.329 2.329 0 0 0-.644.664.9.9 0 0 1-.91.91h-.008a.905.905 0 0 1-.917-.9 2.744 2.744 0 0 1 1.3-2.076 1.7 1.7 0 0 0 .756-.9.908.908 0 0 0-1.815 0 .917.917 0 0 1-1.834 0 2.742 2.742 0 0 1 5.484.002zm-2.948 4.721a.9.9 0 0 0-.9.917v.007a.9.9 0 0 0 .9.913.919.919 0 0 0 0-1.837zm-18.489 6.384a.917.917 0 1 0 0 1.833h.077a.917.917 0 1 0 0-1.833h-.077zm3.188 0a.917.917 0 1 0 0 1.833h.076a.917.917 0 1 0 0-1.833h-.076zM476 231.4v10.32a4.407 4.407 0 0 1-4.4 4.424h-12.915a5.969 5.969 0 0 0-.446.39c-.072.066-.154.138-.241.219l-3.366 3.064a.939.939 0 0 1-1.564-.676v-9.717h-9.608a2.628 2.628 0 0 0-2.622 2.6v10.316a2.588 2.588 0 0 0 2.622 2.558h13.287a.917.917 0 0 1 .612.259l2.741 2.525v-8.71a.918.918 0 0 1 1.835 0v10.788a.9.9 0 0 1-.54.833.874.874 0 0 1-.364.073.925.925 0 0 1-.618-.249l-4.022-3.687h-12.935a4.422 4.422 0 0 1-4.456-4.39v-10.312a4.463 4.463 0 0 1 4.456-4.438h9.608v-6.19a4.448 4.448 0 0 1 4.471-4.4h14.056a4.39 4.39 0 0 1 4.409 4.4zm-1.834 0a2.554 2.554 0 0 0-2.57-2.571h-14.061a2.611 2.611 0 0 0-2.635 2.571v15.658l1.844-1.665c.085-.078.181-.149.251-.213a2.314 2.314 0 0 1 2.156-.877h12.441a2.571 2.571 0 0 0 2.57-2.591V231.4z" transform="translate(-439 -227)"/></svg>