<svg xmlns="http://www.w3.org/2000/svg" width="30.5" height="30.5"><defs><style>.cls-1{fill:#fff;fill-rule:evenodd}</style></defs><path id="p-p-5" class="cls-1" d="M474.057 813.363h-28.421v-28.42a.693.693 0 0 0-1.386 0v29.114a.693.693 0 0 0 .693.693h29.114a.694.694 0 0 0 0-1.387zm-3.466-26.34a.692.692 0 0 0-.693.693l-.694 6.238c-.427 4.268-1.086 6.173-3.076 7.322a4.16 4.16 0 0 1-5.681-1.522 5.546 5.546 0 0 0-7.575-2.031c-2.653 1.531-2.748 4.337-3.208 6.629l-1.255 6.239a.693.693 0 0 0 1.386 0l1.026-4.853c.427-1.78.755-5.665 2.743-6.814a4.159 4.159 0 0 1 5.682 1.523 5.544 5.544 0 0 0 7.575 2.029c2.653-1.531 3.244-3.65 3.77-7.135l.693-7.625a.693.693 0 0 0-.693-.693z" transform="translate(-444.25 -784.25)"/></svg>