<svg xmlns="http://www.w3.org/2000/svg" width="32.281" height="32.31"><defs><style>.cls-1{fill:#fff;fill-rule:evenodd}</style></defs><path id="g-7" class="cls-1" d="M475.11 1022.13l-2.266-.38a12.825 12.825 0 0 0-.911-2.2l1.336-1.87a1.99 1.99 0 0 0-.216-2.57l-2.01-2.01a1.981 1.981 0 0 0-2.563-.22l-1.875 1.34a13.34 13.34 0 0 0-2.28-.94l-.378-2.24a2 2 0 0 0-1.969-1.67h-2.84a2 2 0 0 0-1.969 1.67l-.391 2.3a11.871 11.871 0 0 0-2.193.92l-1.854-1.34a2 2 0 0 0-1.161-.37 1.962 1.962 0 0 0-1.409.59l-2.017 2.01a2 2 0 0 0-.216 2.57l1.349 1.9a12.618 12.618 0 0 0-.9 2.2l-2.239.38a1.99 1.99 0 0 0-1.666 1.97v2.84a1.99 1.99 0 0 0 1.666 1.97l2.293.39a12.341 12.341 0 0 0 .924 2.2l-1.329 1.85a1.991 1.991 0 0 0 .216 2.57l2.01 2.01a1.975 1.975 0 0 0 1.41.59 1.919 1.919 0 0 0 1.153-.38l1.9-1.35a12.613 12.613 0 0 0 2.131.88l.378 2.27a2 2 0 0 0 1.969 1.67h2.846a2 2 0 0 0 1.97-1.67l.384-2.27a12.362 12.362 0 0 0 2.2-.91l1.869 1.34a2 2 0 0 0 1.16.37 1.972 1.972 0 0 0 1.409-.59l2.01-2.01a2 2 0 0 0 .216-2.57l-1.335-1.88a12.285 12.285 0 0 0 .91-2.2l2.266-.37a2.005 2.005 0 0 0 1.666-1.97v-2.85a1.981 1.981 0 0 0-1.654-1.97zm-.155 4.82a.173.173 0 0 1-.149.17l-2.832.47a.913.913 0 0 0-.729.67 10.927 10.927 0 0 1-1.173 2.83.908.908 0 0 0 .04.99l1.666 2.35a.184.184 0 0 1-.02.23l-2.01 2.01a.156.156 0 0 1-.128.05.167.167 0 0 1-.1-.03l-2.34-1.67a.913.913 0 0 0-.991-.04 10.813 10.813 0 0 1-2.827 1.18.877.877 0 0 0-.667.72l-.479 2.84a.175.175 0 0 1-.176.15h-2.84a.173.173 0 0 1-.175-.15l-.473-2.84a.893.893 0 0 0-.667-.72 11.21 11.21 0 0 1-2.766-1.14.938.938 0 0 0-.458-.12.854.854 0 0 0-.526.17l-2.361 1.68a.2.2 0 0 1-.1.03.162.162 0 0 1-.128-.05l-2.01-2.01a.184.184 0 0 1-.021-.23l1.66-2.33a.927.927 0 0 0 .04-1 10.619 10.619 0 0 1-1.187-2.82.947.947 0 0 0-.728-.67l-2.854-.48a.175.175 0 0 1-.148-.18v-2.84a.165.165 0 0 1 .148-.17l2.813-.48a.905.905 0 0 0 .735-.67 10.734 10.734 0 0 1 1.154-2.83.91.91 0 0 0-.048-.99l-1.679-2.36a.184.184 0 0 1 .02-.23l2.01-2.01a.172.172 0 0 1 .128-.06.17.17 0 0 1 .1.04l2.327 1.66a.927.927 0 0 0 1 .04 10.676 10.676 0 0 1 2.819-1.19.921.921 0 0 0 .668-.73l.485-2.85a.175.175 0 0 1 .176-.15h2.839a.175.175 0 0 1 .176.15l.472 2.81a.917.917 0 0 0 .674.74 10.521 10.521 0 0 1 2.894 1.19.914.914 0 0 0 .991-.05l2.327-1.67a.2.2 0 0 1 .1-.03.165.165 0 0 1 .129.05l2.009 2.01a.184.184 0 0 1 .021.23l-1.666 2.34a.925.925 0 0 0-.041 1 10.723 10.723 0 0 1 1.174 2.82.894.894 0 0 0 .728.67l2.833.48a.173.173 0 0 1 .149.17v2.85h-.007zm-14.333-8.4a6.97 6.97 0 1 0 6.967 6.97 6.977 6.977 0 0 0-6.967-6.97zm0 12.12a5.15 5.15 0 1 1 5.146-5.15 5.153 5.153 0 0 1-5.146 5.15z" transform="translate(-444.469 -1009.38)"/></svg>