<svg xmlns="http://www.w3.org/2000/svg" width="30" height="30"><defs><style>.cls-1{fill:#fff;fill-rule:evenodd}</style></defs><path id="p-p-4" class="cls-1" d="M460.5 647.5a15 15 0 1 1 15-15 15.018 15.018 0 0 1-15 15zm0-28.287a13.286 13.286 0 1 0 13.285 13.287 13.3 13.3 0 0 0-13.285-13.287zm5.914 14.143h-11.828a.857.857 0 1 1 0-1.714h11.828a.857.857 0 1 1 0 1.714zm-5.914 5.914a.857.857 0 0 1-.858-.856v-11.829a.858.858 0 1 1 1.715 0v11.829a.855.855 0 0 1-.857.856z" transform="translate(-445.5 -617.5)"/></svg>