<svg xmlns="http://www.w3.org/2000/svg" width="32.969" height="32.94"><defs><style>.cls-1{fill:#fff;fill-rule:evenodd}</style></defs><path id="g-9" class="cls-1" d="M450.77 1261.98a.926.926 0 0 0 .23.04.737.737 0 0 0 .7-.51.765.765 0 0 1 .727-.52h4.058a.735.735 0 0 0 0-1.47h-4.058a2.234 2.234 0 0 0-2.119 1.53.737.737 0 0 0 .462.93zm9.9-.99h5.93a.735.735 0 0 0 0-1.47h-5.93a.735.735 0 0 0 0 1.47zm12.593 27.1a.727.727 0 0 0-.733.73v1.43a.763.763 0 0 1-.765.76h-2.155a.735.735 0 0 0 0 1.47h2.155a2.233 2.233 0 0 0 2.231-2.23v-1.43a.727.727 0 0 0-.733-.73zm0-10.14a.736.736 0 0 0-.733.74v5.94a.733.733 0 0 0 1.466 0v-5.94a.736.736 0 0 0-.733-.74zm0-10.13a.736.736 0 0 0-.733.74v5.94a.733.733 0 0 0 1.466 0v-5.94a.736.736 0 0 0-.733-.74zm-7.841 23.19h-5.934a.735.735 0 0 0 0 1.47h5.934a.735.735 0 0 0 0-1.47zm6.343-31.49h-.972a.735.735 0 0 0 0 1.47h.972a.763.763 0 0 1 .765.76v2.61a.733.733 0 1 0 1.466 0v-2.61a2.233 2.233 0 0 0-2.231-2.23zm-13.025 19.97a.738.738 0 0 0 0 1.04.721.721 0 0 0 1.037 0l8.488-8.49a.738.738 0 0 0 0-1.04.727.727 0 0 0-1.037 0zm1.671-4.26a2.565 2.565 0 1 0-2.563-2.56 2.565 2.565 0 0 0 2.563 2.56zm0-3.66a1.1 1.1 0 1 1-1.1 1.1 1.1 1.1 0 0 1 1.1-1.1zm6.183 4.72a2.565 2.565 0 1 0 2.563 2.57 2.567 2.567 0 0 0-2.563-2.57zm0 3.67a1.1 1.1 0 1 1 1.1-1.1 1.1 1.1 0 0 1-1.1 1.1zm-11.227 4.14a2.1 2.1 0 1 0 1.9 1.22 2.086 2.086 0 0 0-1.9-1.22zm.594 2.32a.627.627 0 0 1-.327.36.611.611 0 0 1-.265.06.641.641 0 0 1-.573-.37.633.633 0 0 1 .306-.84.618.618 0 0 1 .265-.06.642.642 0 0 1 .574.37.619.619 0 0 1 .02.48zm4-2.35a5.078 5.078 0 0 0-4.517-2.93l-2.281-4.91 4.47-9.63a2.136 2.136 0 0 0-1.033-2.83l-.127-.06a2.122 2.122 0 0 0-2.828 1.04l-2.907 6.26-2.908-6.26a2.12 2.12 0 0 0-2.828-1.04l-.127.06a2.137 2.137 0 0 0-1.033 2.83l4.471 9.63-2.281 4.91a5.067 5.067 0 0 0-2.061 9.66 5.064 5.064 0 0 0 6.723-2.46c.015-.03.029-.07.044-.1.014.03.028.07.044.1a5.08 5.08 0 0 0 4.592 2.93 5.06 5.06 0 0 0 4.584-7.2zm-4.986-18.71a.65.65 0 0 1 .373-.34.686.686 0 0 1 .508.02l.126.06a.665.665 0 0 1 .322.88l-3.949 8.51-.809-1.74zm-5.611 22.36a3.595 3.595 0 1 1-2.938-5.1.731.731 0 0 0 .731-.42l1.964-4.23.808 1.74-1.443 3.11a.734.734 0 0 0 .149.83 3.6 3.6 0 0 1 .726 4.07zm1.374-3.55a5.213 5.213 0 0 0-.718-1.18l.718-1.54.717 1.54a5.209 5.209 0 0 0-.72 1.18zm6.149 5.3a3.6 3.6 0 0 1-1.512.33 3.6 3.6 0 0 1-2.533-6.15.736.736 0 0 0 .149-.83l-7.818-16.84a.665.665 0 0 1 .321-.88l.127-.06a.67.67 0 0 1 .881.32l7.818 16.84a.729.729 0 0 0 .73.42c.106-.01.213-.02.32-.02a3.6 3.6 0 0 1 1.514 6.87zm-9.9-5.17a2.1 2.1 0 1 0 1.086 1.18 2.1 2.1 0 0 0-1.088-1.18zm-.311 2.17a.636.636 0 0 1-.839.31.627.627 0 0 1-.327-.36.635.635 0 0 1 .377-.81.541.541 0 0 1 .216-.04.619.619 0 0 1 .266.06.627.627 0 0 1 .327.36.619.619 0 0 1-.022.48z" transform="translate(-441.031 -1259.53)"/></svg>