<svg xmlns="http://www.w3.org/2000/svg" width="28.188" height="27.75"><defs><style>.cls-1{fill:#fff;fill-rule:evenodd}</style></defs><path id="g-3" class="cls-1" d="M468.65 511.821l2.826 3.192a15.147 15.147 0 0 1-1.849 1.213 13.884 13.884 0 1 1-.769-24.549c.293.138.585.29.873.455l-1.292 1.143-1.94-1.985-3.277 2.893-1.942-2.1-6.11 5.441 3.914 4.268-1.539 1.337 3.855 4.271-1.53 1.336 5.511 6.065zm6.7-8.614l1.5 1.651-1.67 1.486-1.5-1.651zm-2.309 5.814l2.259 2.479-2.5 2.229-2.257-2.477zm-6.651-15.213l2.254 2.477-2.5 2.231-2.254-2.477zm-5.294.857l3.006 3.3-3.341 2.972-3.006-3.3zm7.352 8.829l-2.254-2.475 2.5-2.231 2.256 2.475zm3.1-3.705l1.668-1.487 1.5 1.652-1.666 1.485zm-.956 8.937l-2.257-2.475 2.506-2.231 2.259 2.48zm-1.177-13.845l1.67-1.485 1.5 1.651-1.67 1.486zm-6.259 11.7l-3.006-3.3 3.34-2.974 3.006 3.3zm2.376 5.706l-3.007-3.3 3.341-2.974 3 3.3z" transform="translate(-448.656 -490.281)"/></svg>