<svg xmlns="http://www.w3.org/2000/svg" width="31" height="31"><defs><style>.cls-1{fill:#fff;fill-rule:evenodd}</style></defs><path id="g-5" class="cls-1" d="M455.181 779.143H448v5.409h7.184v-5.409zm-1.322 4.093h-4.547v-2.771h4.547v2.771zm1.259 4.619h12.92v1.322h-12.92v-1.322zm17.334-25.2h-20.989a3.07 3.07 0 0 0-3.036 3.037v9.034h-.892a3.07 3.07 0 0 0-3.035 3.037v12.855a3.07 3.07 0 0 0 3.035 3.037h21.628a3.084 3.084 0 0 0 3.036-3.1v-8.971h.265a3.084 3.084 0 0 0 3.036-3.1v-12.791a3.09 3.09 0 0 0-3.048-3.037zm-20.989 1.322h20.989a1.744 1.744 0 0 1 1.713 1.715v1.322h-24.416v-1.322a1.745 1.745 0 0 1 1.714-1.714zm19.408 26.578a1.744 1.744 0 0 1-1.714 1.714h-21.622a1.744 1.744 0 0 1-1.713-1.714v-12.8a1.744 1.744 0 0 1 1.713-1.714h21.628a1.744 1.744 0 0 1 1.714 1.714v12.8h-.006zm1.581-10.287h-.266v-2.5a3.07 3.07 0 0 0-3.035-3.037h-19.4v-6.4h24.416v10.224a1.744 1.744 0 0 1-1.715 1.714z" transform="translate(-444.5 -762.656)"/></svg>