<svg xmlns="http://www.w3.org/2000/svg" width="33.375" height="31.469"><defs><style>.cls-1{fill:#fff;fill-rule:evenodd}</style></defs><path id="g-1" class="cls-1" d="M474.828 243.952h-.558a13.627 13.627 0 0 0-4.015-5.557v-.014a3.715 3.715 0 0 1 .6-3.051 1.728 1.728 0 0 0 .048-1.783 1.756 1.756 0 0 0-1.529-.909 2.2 2.2 0 0 0-.22.014 7.309 7.309 0 0 0-4.965 2.561 17.808 17.808 0 0 0-4.725-.633 16.657 16.657 0 0 0-11 3.994 12.912 12.912 0 0 0-4.614 9.771 12.1 12.1 0 0 0 .337 2.851.125.125 0 0 0 .014.048.229.229 0 0 1 .014.041 12.754 12.754 0 0 0 1.026 2.741 14.231 14.231 0 0 0 2.618 3.974 6.349 6.349 0 0 1 1.694 4.049v.434a.413.413 0 0 0 .007.1 1.672 1.672 0 0 0 1.66 1.5h5.13a1.672 1.672 0 0 0 1.667-1.666v-.344a18.806 18.806 0 0 0 2.41.034v.317a1.672 1.672 0 0 0 1.667 1.666h5.131a1.671 1.671 0 0 0 1.666-1.666v-1.253a4.256 4.256 0 0 1 1.454-2.913c.061-.055.13-.11.192-.165l.014-.014c.014-.014.035-.028.048-.042a13.614 13.614 0 0 0 3.754-5.474h.482a2.381 2.381 0 0 0 2.376-2.376v-3.828a2.4 2.4 0 0 0-2.383-2.407zm.723 6.2a.723.723 0 0 1-.723.723h-1.075a.827.827 0 0 0-.792.585 11.892 11.892 0 0 1-3.5 5.337l-.014.014-.007.007-.186.165a.035.035 0 0 1-.02.014 5.892 5.892 0 0 0-2 4.117v1.288a.015.015 0 0 1-.014.014h-5.131a.015.015 0 0 1-.014-.014v-1.2a.81.81 0 0 0-.275-.613.824.824 0 0 0-.551-.213.422.422 0 0 0-.09.007 15.618 15.618 0 0 1-1.7.089 16.034 16.034 0 0 1-2.162-.145.818.818 0 0 0-.654.2.835.835 0 0 0-.283.62v1.26a.015.015 0 0 1-.014.014h-5.13a.015.015 0 0 1-.014-.014v-.42a8.01 8.01 0 0 0-2.162-5.144 12.727 12.727 0 0 1-2.328-3.526.11.11 0 0 0-.014-.027 11.016 11.016 0 0 1-.9-2.4c0-.007-.007-.014-.007-.021v-.014a10.52 10.52 0 0 1-.3-2.492c0-6.68 6.267-12.12 13.966-12.12a15.864 15.864 0 0 1 4.78.73.829.829 0 0 0 .936-.323 5.613 5.613 0 0 1 4.174-2.342.1.1 0 0 1 .1.056.085.085 0 0 1-.007.1 5.366 5.366 0 0 0-.785 4.379c0 .007.007.021.007.028a.816.816 0 0 0 .31.62 12.007 12.007 0 0 1 3.926 5.557.828.828 0 0 0 .785.571h1.136a.723.723 0 0 1 .723.723v3.815h.007zm-15.192-2.637h-1.846a1.2 1.2 0 1 1 0-2.4h3.264a.826.826 0 1 0 0-1.652h-1.508v-1.109a.827.827 0 0 0-1.653 0v1.109h-.1a2.851 2.851 0 1 0 0 5.7h1.845a1.2 1.2 0 1 1 0 2.4h-3.319a.826.826 0 1 0 0 1.652h1.57v1.129a.827.827 0 1 0 1.653 0v-1.124h.138a2.851 2.851 0 0 0-.044-5.701z" transform="translate(-443.844 -232.625)"/></svg>