<svg xmlns="http://www.w3.org/2000/svg" width="29.969" height="21.156"><defs><style>.cls-1{fill:#fff;fill-rule:evenodd}</style></defs><path id="g-4" class="cls-1" d="M456.466 660.93a3.208 3.208 0 1 0 3.208 3.208 3.212 3.212 0 0 0-3.208-3.208zm0 4.913a1.711 1.711 0 1 1 1.711-1.711 1.712 1.712 0 0 1-1.711 1.711zm12.2-1.711a3.208 3.208 0 1 0-3.208 3.208 3.212 3.212 0 0 0 3.21-3.208zm-3.208 1.711a1.711 1.711 0 1 1 1.711-1.711 1.712 1.712 0 0 1-1.709 1.711zm8.444-9.673a6.6 6.6 0 0 0-6.147-5.5l-.128-.024a.938.938 0 0 0-.128-.012h-12.921a6.619 6.619 0 0 0-6.55 5.523l-1.973 10.577a4.132 4.132 0 0 0-.092.861 4.186 4.186 0 0 0 7.644 2.359l.953-1.32a.749.749 0 0 0-1.216-.874l-.965 1.338a2.687 2.687 0 0 1-4.919-1.5 2.8 2.8 0 0 1 .061-.574l1.974-10.6a5.128 5.128 0 0 1 5.077-4.289h12.868l.1.018c.031.006.055.006.086.012a5.177 5.177 0 0 1 4.8 4.271l1.98 10.6a2.911 2.911 0 0 1 .055.556 2.69 2.69 0 0 1-4.937 1.479l-1.026-1.418a.749.749 0 1 0-1.216.874l1.008 1.4a4.185 4.185 0 0 0 7.655-2.34 4.3 4.3 0 0 0-.085-.849zm-9.061-.513a1.015 1.015 0 1 1-1.014 1.014 1.014 1.014 0 0 1 1.016-1.014zm4.148 0a1.015 1.015 0 1 1-1.014 1.014 1.014 1.014 0 0 1 1.016-1.014zm-13.912-1.992a.751.751 0 0 0-.751.752v1.35h-1.351a.752.752 0 0 0 0 1.5h1.351v1.351a.752.752 0 0 0 1.5 0v-1.348h1.35a.752.752 0 0 0 0-1.5h-1.35v-1.35a.751.751 0 0 0-.747-.755zm11.835 4.063a1.015 1.015 0 1 1-1.014 1.015 1.015 1.015 0 0 1 1.016-1.015zm0-4.148a1.014 1.014 0 1 1-1.014 1.014 1.014 1.014 0 0 1 1.016-1.014z" transform="translate(-445.969 -650.625)"/></svg>