<svg xmlns="http://www.w3.org/2000/svg" width="19.563" height="39.25"><defs><style>.cls-1{fill:#fff;fill-rule:evenodd}</style></defs><path id="g-2" class="cls-1" d="M468.556 373.617a1.858 1.858 0 0 0-1.608-.913h-6.643l1.935-15.1a1.257 1.257 0 0 0-2.353-.756l-10.4 19.306a1.874 1.874 0 0 0 1.65 2.763h6.643l-1.936 15.1a1.242 1.242 0 0 0 .863 1.356 1.292 1.292 0 0 0 .394.063 1.239 1.239 0 0 0 1.1-.664l10.4-19.306a1.86 1.86 0 0 0-.045-1.849zm-1.086 1.243l-10.336 19.193 2.012-15.692a.639.639 0 0 0-.635-.722h-7.37a.593.593 0 0 1-.523-.875l10.336-19.194-2.012 15.693a.641.641 0 0 0 .635.722h7.371a.593.593 0 0 1 .522.875z" transform="translate(-449.281 -356.188)"/></svg>