<?xml version="1.0" encoding="utf-8"?>
<!-- Generator: Adobe Illustrator 22.1.0, SVG Export Plug-In . SVG Version: 6.00 Build 0)  -->
<svg version="1.1" id="Слой_1" xmlns="http://www.w3.org/2000/svg" xmlns:xlink="http://www.w3.org/1999/xlink" x="0px" y="0px"
	 viewBox="0 0 24.1 24.9" style="enable-background:new 0 0 24.1 24.9;" xml:space="preserve">
<style type="text/css">
	.st0{fill:#FFFFFF;}
</style>
<g>
	<g>
		<path class="st0" d="M9.1,18.7c-0.6-0.4-1.1-0.9-1.4-1.5c-0.3-0.7-0.5-1.5-0.5-2.4v0c0-0.6,0.1-1.1,0.2-1.7
			c0.1-0.6,0.3-1.2,0.6-1.8C8,11.1,8,11,8.1,10.9c0-0.1,0.1-0.2,0.1-0.3l3.2-6.4h2.3l-3.8,7.4l0-0.4c0.2-0.3,0.4-0.6,0.7-0.7
			s0.7-0.3,1.1-0.3c0.8,0,1.4,0.2,2,0.5s1,0.9,1.3,1.5c0.3,0.7,0.4,1.5,0.4,2.4v0c0,1-0.2,1.8-0.5,2.5c-0.3,0.7-0.8,1.2-1.4,1.6
			c-0.6,0.4-1.4,0.5-2.3,0.5S9.7,19.1,9.1,18.7z M12.8,16.6c0.4-0.4,0.5-1,0.5-1.8v0c0-0.8-0.2-1.5-0.6-1.9
			c-0.4-0.5-0.9-0.7-1.6-0.7c-0.6,0-1.1,0.2-1.4,0.7c-0.3,0.5-0.5,1.1-0.5,1.9v0c0,0.8,0.2,1.3,0.5,1.7c0.4,0.4,0.9,0.6,1.5,0.6
			C12,17.3,12.5,17,12.8,16.6z"/>
	</g>
</g>
</svg>
