<svg xmlns="http://www.w3.org/2000/svg" width="30.312" height="30.16"><defs><style>.cls-1{fill:#fff;fill-rule:evenodd}</style></defs><path class="cls-1" d="M28.5 6.06h-5.748a2.889 2.889 0 0 0 .479-.41 3.285 3.285 0 0 0 .939-2.31A3.341 3.341 0 0 0 20.837 0a3.578 3.578 0 0 0-1.435.33 31.018 31.018 0 0 0-4.239 3.4 31.015 31.015 0 0 0-4.24-3.4A3.583 3.583 0 0 0 9.488 0a3.341 3.341 0 0 0-3.334 3.34 3.285 3.285 0 0 0 .939 2.31 2.973 2.973 0 0 0 .479.41H1.824A1.818 1.818 0 0 0 .012 7.87v4.25a1.812 1.812 0 0 0 1.812 1.81h.962v13.88a2.353 2.353 0 0 0 2.356 2.35h20.05a2.352 2.352 0 0 0 2.356-2.35V13.93h.952a1.812 1.812 0 0 0 1.813-1.81V7.87A1.819 1.819 0 0 0 28.5 6.06zm-8.384-4.17a1.778 1.778 0 0 1 .721-.17 1.623 1.623 0 0 1 1.617 1.62 1.6 1.6 0 0 1-1.552 1.61h-4.537a31.673 31.673 0 0 1 3.748-3.06zM9.479 1.72a1.774 1.774 0 0 1 .721.17 31.673 31.673 0 0 1 3.751 3.06H9.414a1.6 1.6 0 0 1-1.551-1.61 1.622 1.622 0 0 1 1.613-1.62zM1.815 12.73a.605.605 0 0 1-.6-.61V7.87a.6.6 0 0 1 .6-.6H12.26v5.46H1.812zm10.448 16.23H5.134a1.152 1.152 0 0 1-1.148-1.15V13.93h8.277v15.03zm4.581 0h-3.373V7.27h3.373v21.69zm9.486-1.15a1.144 1.144 0 0 1-1.147 1.14h-7.131V13.93h8.278v13.88zm2.774-15.69a.605.605 0 0 1-.6.61H18.049V7.27H28.5a.6.6 0 0 1 .6.6v4.25z"/></svg>