<svg xmlns="http://www.w3.org/2000/svg" width="15" height="16" fill="none" viewBox="0 0 15 16">
    <path fill="#1896E6" d="M11.956 3.085c0 .118-.047.23-.13.313-.083.083-.195.13-.312.13H3.006c-.117 0-.23-.047-.313-.13-.083-.083-.13-.195-.13-.313 0-.117.047-.23.13-.312.083-.083.196-.13.313-.13h8.508c.117 0 .23.047.312.13.083.083.13.195.13.312zm0 2.567c0-.117-.047-.23-.13-.312-.083-.083-.195-.13-.312-.13H3.006c-.117 0-.23.047-.313.13-.083.083-.13.195-.13.312 0 .117.047.23.13.313.083.083.196.13.313.13h8.508c.117 0 .23-.047.312-.13.083-.083.13-.196.13-.313zm-5.399 2.57c0-.117-.047-.23-.13-.313-.082-.082-.195-.129-.312-.129H3.003c-.117 0-.23.047-.313.13-.083.082-.13.195-.13.312 0 .117.047.23.13.313.083.082.196.129.313.129h3.112c.117 0 .23-.047.313-.13.082-.082.129-.195.129-.312zm-3.554 2.119c-.117 0-.23.046-.313.13-.083.082-.13.195-.13.312 0 .117.047.23.13.313.083.082.196.129.313.129h2.293c.117 0 .23-.047.312-.13.083-.082.13-.195.13-.312 0-.117-.047-.23-.13-.313-.083-.083-.195-.13-.312-.13H3.003zM15 11.364c.002.807-.242 1.596-.697 2.263-.455.667-1.102 1.181-1.855 1.474-.753.292-1.576.35-2.363.166-.786-.184-1.498-.602-2.043-1.198H1.621c-.43-.001-.842-.172-1.145-.476C.172 13.29 0 12.878 0 12.448V1.62C0 1.19.172.779.476.476.779.172 1.19 0 1.62 0h11.275c.43 0 .842.17 1.146.475.304.304.475.716.475 1.146V7.22c0 .117-.047.23-.13.313-.083.083-.195.13-.312.13-.118 0-.23-.047-.313-.13-.083-.083-.13-.196-.13-.313v-5.6c0-.195-.077-.382-.215-.52s-.326-.216-.521-.216H1.62c-.195 0-.382.079-.52.217s-.216.325-.217.52v10.833c0 .195.079.382.217.52s.325.216.52.217h5.805c-.291-.563-.443-1.188-.442-1.822 0-1.063.423-2.082 1.174-2.834.752-.751 1.771-1.174 2.834-1.174 1.063 0 2.082.423 2.834 1.174.752.752 1.174 1.771 1.174 2.834v-.005zm-.884 0c0-.618-.183-1.222-.527-1.736-.343-.514-.83-.914-1.401-1.15-.571-.237-1.2-.299-1.805-.178-.606.12-1.163.418-1.6.855-.437.436-.734.993-.855 1.599-.12.606-.058 1.234.178 1.805.237.57.637 1.059 1.15 1.402.514.343 1.118.526 1.736.526.827-.001 1.62-.33 2.205-.914.586-.585.916-1.377.919-2.204v-.005zm-3.124-2.408c-.117 0-.23.046-.312.13-.083.082-.13.195-.13.312v1.532H9.342c-.117 0-.23.047-.313.13-.083.083-.13.195-.13.312 0 .117.047.23.13.313.083.083.196.13.313.13h1.65c.117 0 .23-.047.313-.13.083-.083.13-.196.13-.313.002-.032.002-.065 0-.097.002-.033.002-.067 0-.1V9.407c0-.059-.012-.116-.034-.17-.022-.054-.054-.103-.095-.145-.041-.041-.09-.074-.144-.096-.054-.023-.112-.034-.17-.034v-.006z"/>
</svg>
