<svg xmlns="http://www.w3.org/2000/svg" width="13" height="16" fill="none" viewBox="0 0 13 16">
    <path fill="#1896E6" d="M9.21 11.918c-.144 0-.282.057-.384.159-.101.101-.158.24-.158.383v1.625H1.083V1.083h7.585V2.71c0 .143.057.281.158.383.102.101.24.158.383.158.144 0 .282-.057.384-.158.101-.102.158-.24.158-.383V.542c0-.144-.057-.282-.158-.383C9.49.057 9.353 0 9.209 0H.542C.398 0 .26.057.159.159.057.26 0 .399 0 .542v14.085c0 .143.057.281.159.383.101.101.24.159.383.159h8.667c.144 0 .282-.058.384-.16.101-.1.158-.239.158-.382V12.46c0-.144-.057-.282-.158-.383-.102-.102-.24-.159-.384-.159z"/>
    <path fill="#1896E6" d="M2.709 8.126c.299 0 .541-.243.541-.542 0-.299-.242-.542-.541-.542-.3 0-.542.243-.542.542 0 .3.243.542.542.542zM12.964 7.78c.048-.126.048-.265 0-.39-.01-.023-.022-.043-.038-.06-.01-.03-.024-.058-.043-.082L10.716 4.54c-.09-.112-.22-.184-.362-.2-.142-.016-.284.024-.397.113-.056.044-.103.1-.137.162-.035.062-.057.13-.065.202-.008.07-.002.143.018.211.02.069.053.133.098.189l1.462 1.825h-4.29c-.144 0-.282.057-.383.159-.102.102-.159.24-.159.383 0 .144.057.282.159.383.101.102.239.159.383.159h4.29l-1.462 1.83c-.089.113-.13.256-.113.398.016.142.088.272.2.361.095.077.213.119.335.12.081 0 .161-.018.234-.053.073-.034.138-.085.189-.148l2.167-2.709c.018-.026.033-.055.043-.086.016-.018.028-.038.038-.06z"/>
</svg>
