<svg xmlns="http://www.w3.org/2000/svg" width="19" height="16" fill="none" viewBox="0 0 19 16">
    <path fill="#FD8050" d="M18.842 3.95L15.01.12c-.158-.159-.395-.159-.553 0l-1.343 1.343c-.197.197-.395.316-.632.434l-.869-.237c-.79-.197-1.62-.158-2.37.119-.513.197-.987.474-1.382.869-.198-.08-.395-.119-.553-.158-.553-.08-1.067-.356-1.462-.75L4.503.394C4.424.316 4.345.277 4.227.277c-.119 0-.198.039-.277.118L.12 4.227c-.159.158-.159.395 0 .553l1.343 1.343c.395.395.671.908.75 1.461.08.435.237.87.435 1.225l-.474.553c-.474.592-.395 1.461.197 1.935.237.198.553.316.87.316h.157c.04.356.198.711.514.948.237.198.553.316.869.316h.158c.04.356.197.711.513.948.237.198.553.316.87.316h.157c.04.356.198.672.514.909.237.197.553.316.869.316.316 0 .632-.119.869-.316l.158.158c.276.276.671.434 1.027.434.316 0 .632-.118.908-.355.237-.237.395-.514.435-.83.079 0 .158.04.237.04.355 0 .71-.158.948-.395.158-.158.276-.316.316-.514.237.158.513.237.79.237.355 0 .71-.118.948-.395.276-.276.395-.632.395-.987h.04c.315 0 .631-.119.908-.356.276-.237.434-.592.434-.987 0-.356-.118-.75-.395-.988l-.395-.395.435-.434c.513-.514.869-1.185.987-1.896.08-.553.356-1.067.751-1.462L19 4.582c0-.237 0-.474-.158-.632zM2.884 10.705c-.237-.198-.277-.553-.08-.79L3.99 8.493c.118-.119.276-.198.434-.198.119 0 .277.04.356.119.237.197.276.553.079.79l-1.185 1.422c-.158.237-.553.276-.79.079zm1.5 1.224c-.236-.197-.276-.553-.078-.79L5.49 9.717l.632-.75c.118-.119.276-.198.434-.198.119 0 .277.04.356.119.118.079.197.237.197.395 0 .158-.04.316-.118.434l-.198.237-1.58 1.936c-.197.197-.592.237-.83.04zm1.502 1.264c-.119-.079-.198-.237-.198-.395 0-.158.04-.316.119-.434l1.58-1.936c.118-.118.276-.197.434-.197.119 0 .277.04.356.118.118.08.197.237.197.395 0 .158-.04.316-.118.435l-1.58 1.935c-.158.198-.553.237-.79.08zm1.5 1.225c-.118-.08-.197-.237-.197-.395 0-.158.04-.316.119-.435l1.185-1.422c.118-.118.276-.197.434-.197.119 0 .277.04.356.118.118.08.197.237.197.395 0 .158-.04.316-.118.435l-1.185 1.422c-.158.237-.553.276-.79.079zm2.766.237c-.237.197-.593.158-.83-.08l-.158-.157.711-.909.316.316c.119.119.158.277.158.435 0 .118-.079.276-.197.395zm5.056-3.24c-.237.198-.593.159-.83-.078l-4.068-4.03c-.158-.157-.395-.157-.553 0-.158.159-.158.396 0 .554l4.068 4.068.04.04c.237.237.237.592 0 .83-.237.236-.593.236-.83 0l-1.54-1.541L8.927 8.69c-.158-.158-.395-.158-.553 0-.158.158-.158.395 0 .553l2.568 2.568.869.869c.118.118.158.237.158.395 0 .158-.08.316-.158.395-.237.237-.593.237-.83 0l-.71-.711c.039-.119.039-.237.039-.395-.04-.356-.198-.672-.514-.909-.197-.158-.395-.237-.632-.276.04-.158.08-.356.04-.514-.04-.355-.198-.671-.514-.908-.237-.198-.513-.277-.79-.316v-.237c-.04-.356-.197-.672-.513-.909-.237-.197-.553-.316-.87-.316-.315 0-.631.119-.868.316-.08-.197-.198-.355-.356-.513-.237-.198-.553-.316-.869-.316-.395 0-.79.197-1.066.513l-.158.198c-.119-.237-.158-.474-.198-.711-.118-.711-.474-1.383-.987-1.896L.948 4.503l3.279-3.278L5.293 2.29c.514.514 1.185.87 1.896.988L5.61 4.74c-.237.198-.355.514-.355.79 0 .316.118.593.316.83.355.395.908.474 1.382.237l1.857-.948c.276-.119.553-.198.869-.119.276.04.513.158.71.356l4.899 4.74c.118.118.158.276.158.434-.04.119-.119.277-.237.356zm1.738-6.161c-.514.513-.87 1.185-.988 1.896-.079.553-.355 1.066-.75 1.461l-.435.435-3.91-3.792c-.316-.316-.672-.474-1.106-.553-.474-.08-.948 0-1.383.197l-1.856.948c-.158.08-.316.04-.435-.079-.079-.079-.118-.158-.079-.276 0-.119.04-.198.119-.237l2.29-2.094c.317-.316.712-.553 1.146-.71.632-.238 1.264-.238 1.896-.08l.87.237h.078c.119.08.237.08.356 0 .355-.158.671-.395.948-.671L14.773.869l3.279 3.279-1.106 1.106z"/>
</svg>
