<svg xmlns="http://www.w3.org/2000/svg" width="13" height="16" fill="none" viewBox="0 0 13 16">
    <path fill="#1896e6" d="M11.303 5.895h-.463v-2.22C10.84 1.645 9.18 0 7.136 0H5.825C3.78 0 2.122 1.646 2.122 3.675v2.22h-.463C.733 5.895 0 6.622 0 7.54v6.813C0 15.273.733 16 1.659 16h9.682c.926 0 1.659-.727 1.659-1.646V7.541c-.039-.919-.771-1.646-1.697-1.646zM7.56 13.053c.038.191-.077.344-.27.344H5.67c-.193 0-.309-.191-.27-.344l.54-2.106c-.463-.191-.772-.65-.772-1.186 0-.728.579-1.302 1.312-1.302.733 0 1.311.574 1.311 1.302 0 .536-.308.995-.771 1.186l.54 2.106zm1.08-7.158H4.32v-2.22c0-.804.655-1.455 1.465-1.455h1.35c.81 0 1.466.65 1.466 1.455v2.22h.039z"/>
</svg>