<svg width="19" height="19" viewBox="0 0 19 19" fill="none" xmlns="http://www.w3.org/2000/svg">
<g clip-path="url(#clip0)">
<path d="M3.86295 18.1071C4.09495 18.1071 4.28195 17.9191 4.28195 17.6881V14.9651C5.15295 14.7731 5.80695 13.9951 5.80695 13.0671C5.80695 12.1391 5.15295 11.3621 4.28195 11.1691V0.312067C4.28195 0.0800665 4.09395 -0.106934 3.86295 -0.106934C3.63095 -0.106934 3.44395 0.0810665 3.44395 0.312067V11.1701C2.57295 11.3621 1.91895 12.1401 1.91895 13.0681C1.91895 13.9961 2.57295 14.7731 3.44395 14.9661V17.6891C3.44395 17.9201 3.63195 18.1071 3.86295 18.1071ZM2.75695 13.0671C2.75695 12.4571 3.25295 11.9611 3.86295 11.9611C4.47295 11.9611 4.96895 12.4571 4.96895 13.0671C4.96895 13.6771 4.47295 14.1731 3.86295 14.1731C3.25295 14.1731 2.75695 13.6771 2.75695 13.0671Z" fill="#FD8050"/>
<path d="M9.99966 18.1071C10.2317 18.1071 10.4187 17.9191 10.4187 17.6881V6.32107C11.2897 6.12907 11.9437 5.35107 11.9437 4.42307C11.9437 3.49507 11.2897 2.71807 10.4187 2.52507V0.312067C10.4187 0.0800665 10.2307 -0.106934 9.99966 -0.106934C9.76866 -0.106934 9.58066 0.0810665 9.58066 0.312067V2.52607C8.70966 2.71807 8.05566 3.49607 8.05566 4.42407C8.05566 5.35207 8.70966 6.12907 9.58066 6.32207V17.6891C9.58066 17.9201 9.76766 18.1071 9.99966 18.1071ZM8.89366 4.42407C8.89366 3.81407 9.38966 3.31807 9.99966 3.31807C10.6097 3.31807 11.1057 3.81407 11.1057 4.42407C11.1057 5.03407 10.6097 5.53007 9.99966 5.53007C9.38966 5.53007 8.89366 5.03407 8.89366 4.42407Z" fill="#FD8050"/>
<path d="M16.1364 18.1071C16.3684 18.1071 16.5554 17.9191 16.5554 17.6881V11.9141C17.4264 11.7221 18.0804 10.9441 18.0804 10.0161C18.0804 9.08807 17.4264 8.31107 16.5554 8.11807V0.312067C16.5554 0.0800665 16.3674 -0.106934 16.1364 -0.106934C15.9044 -0.106934 15.7174 0.0810665 15.7174 0.312067V8.11907C14.8464 8.31107 14.1924 9.08907 14.1924 10.0171C14.1924 10.9451 14.8464 11.7231 15.7174 11.9151V17.6891C15.7174 17.9201 15.9044 18.1071 16.1364 18.1071ZM15.0304 10.0161C15.0304 9.40607 15.5264 8.91007 16.1364 8.91007C16.7464 8.91007 17.2424 9.40607 17.2424 10.0161C17.2424 10.6261 16.7464 11.1221 16.1364 11.1221C15.5264 11.1231 15.0304 10.6261 15.0304 10.0161Z" fill="#FD8050"/>
</g>
<defs>
<clipPath id="clip0">
<rect width="19" height="19" fill="white"/>
</clipPath>
</defs>
</svg>
