<svg xmlns="http://www.w3.org/2000/svg" width="16" height="20" fill="none" viewBox="0 0 16 20">
    <g clip-path="url(#a)">
        <path fill="#FD4249" d="M13.969 7.335L7.335 13.97a3.74 3.74 0 0 1-2.652 1.096c-.96 0-1.92-.365-2.652-1.096a3.756 3.756 0 0 1 0-5.304l3.707-3.707c.783-.784 2.15-.785 2.934 0 .392.392.608.913.608 1.467 0 .555-.216 1.076-.608 1.468L5.794 10.77a.4.4 0 1 1-.565-.566l2.877-2.877c.241-.241.374-.562.374-.902 0-.341-.132-.661-.374-.902-.482-.482-1.322-.481-1.804 0L2.596 9.23a2.953 2.953 0 0 0 0 4.172 2.953 2.953 0 0 0 4.173 0l6.633-6.633a2.953 2.953 0 0 0 0-4.172 2.954 2.954 0 0 0-4.174 0l-.854.855a.4.4 0 0 1-.566-.566l.854-.855a3.756 3.756 0 0 1 5.304 0 3.754 3.754 0 0 1 .003 5.304z"/>
    </g>
    <defs>
        <clipPath id="a">
            <path fill="#fff" d="M0 0h16v20H0z"/>
        </clipPath>
    </defs>
</svg>
